<?xml version="1.0" encoding="utf-8"?>
<!-- Generator: Adobe Illustrator 26.0.1, SVG Export Plug-In . SVG Version: 6.00 Build 0)  -->
<svg version="1.1" id="Layer_1" xmlns="http://www.w3.org/2000/svg" xmlns:xlink="http://www.w3.org/1999/xlink" x="0px" y="0px"
	 viewBox="0 0 1555 127" style="enable-background:new 0 0 1555 127;" xml:space="preserve">
<style type="text/css">
	.st0{fill:#3B71FE;}
	.st1{fill:#FFFFFF;}
</style>
<g>
	<path class="st0" d="M1062.4,108.5c0,9,7.2,16.2,16.2,16.2c9,0,16.3-7.2,16.3-16.2c0-9-7.3-16.3-16.3-16.3
		C1069.6,92.2,1062.4,99.5,1062.4,108.5z"/>
	<path class="st0" d="M1127.8,63.5c0-18.8,10.4-35.9,32.7-35.9c17.5,0,27.2,5.2,35.2,10.9l15.3-21.1c-10.5-9.1-23.5-16.8-50.5-16.8
		c-43.2,0-64.9,28.7-64.9,62.8s21.8,62.8,64.9,62.8c27,0,40-7.6,50.5-16.8l-15.3-21.1c-8,5.7-17.8,10.9-35.2,10.9
		C1138.2,99.3,1127.8,82.3,1127.8,63.5z"/>
	<path class="st0" d="M1253.2,4h-31.4v119h88.7V96h-57.4V4z"/>
	<path class="st0" d="M1375.3,99.3c-17.9,0-23.5-9.9-23.5-30.8V4h-31.4v64.6c0,34.9,15.8,57.8,54.9,57.8c38.9,0,54.8-22.8,54.8-57.8
		V4h-31.4v64.6C1398.7,89.5,1393.1,99.3,1375.3,99.3z"/>
	<path class="st0" d="M1532.5,60.6c12.1-3.1,18.3-12.8,18.3-23.7c0-14.4-8.6-32.9-46.5-32.9h-58.4v119h60.4c38,0,48-18.6,48-35.9
		C1554.3,75.3,1546.9,64.4,1532.5,60.6z M1477.3,29.3h26c11.7,0,15.3,4.6,15.3,10.9s-3.7,11.5-15.4,11.5h-25.9V29.3z M1503.9,97.7
		h-26.6V73.4h26.7c12.9,0,18.1,3.8,18.1,12.1C1522.1,93.9,1516.9,97.7,1503.9,97.7z"/>
	<g>
		<path class="st1" d="M55.8,50c-13.2-2.8-20-4.6-20-12.6c0-7.1,8.4-9.8,17.3-9.8c8.7,0,19.3,1.2,32.1,6.7l15.1-21.9
			C86.2,3.9,70.4,0.6,51.5,0.6C18.6,0.6,4.4,17,4.4,38.2c0,19.5,13.7,31.3,45.3,37.9c14,2.9,22.2,4.2,22.2,12
			c0,9.3-11.7,11.1-22.1,11.1c-11.1,0-23.9-2.9-33.8-8.8L0.9,112.5c11.2,9,29.2,13.9,50.6,13.9c32.1,0,51.8-11.9,51.8-38.1
			C103.3,66.1,86.1,56.7,55.8,50z"/>
		<polygon class="st1" points="193.6,48.8 145.5,48.8 145.5,4 114.1,4 114.1,123 145.5,123 145.5,75.8 193.6,75.8 193.6,123 
			224.9,123 224.9,4 193.6,4 		"/>
		<path class="st1" d="M282,4l-48.7,119h33.8l8.1-20.9h6.2c0.7-1.3,1.1-2.7,1.3-4.2v-1c0-0.1,0-0.3,0.1-0.4c0.1-0.1,0.2-0.2,0.3-0.2
			l0.9-0.4l0.9-0.4c0.3,0,0.7-0.2,0.9-0.5c0.2-0.3,0.4-0.6,0.4-1c0-0.4-0.1-0.7-0.4-1c-0.2-0.3-0.5-0.5-0.9-0.5h-2.2
			c-0.6-1.4-1.2-2.8-1.7-4.3c2.4,0.7,4.9,1.1,7.4,1.3c-3-1.3-5.8-2.9-8.5-4.8c-0.8-2.9-1.4-5.8-1.9-8.7c5.3,3.2,11.3,4.5,12.6,4.8
			c0.2,0,0.3,0,0.3,0c-2.1-1.3-4-2.7-5.6-4.1c-0.1-0.1-0.1-0.1-0.2-0.2c-3.7-3.3-6.3-6.6-8-9.5c-0.1-2.7,0-5.5,0.3-8.2
			c0.1-0.5,0.1-1,0.2-1.4c3,3.9,6.6,7.3,10.7,9.8c-5.8-6-7.9-13.2-8.7-18.5c0.8-2.3,1.7-4.5,2.9-6.5c1.3,6.9,4.2,10.7,4.2,10.7
			c-1.6-5.2-1.6-10.8-0.2-16c1.1-1.2,2.4-2.2,3.7-3.1c-0.2,3.2,0.1,6.9,1,10c-0.1-4.2,0.8-8.3,2.6-12.1c2.8-1.3,5.8-2.1,8.9-2.4
			c0.7-0.4,1.3-0.7,1.9-1c7.8-3.9,9-3,9.8-2.4c1.4,1-1.5,3.7-4,7c-0.6,0.8-0.6,1.3,0,1.8c1.6,1.2,3.1,2.5,4.4,4.1
			c2.6,5.3,7.8,10.7,9.1,12.1c0.4,0.3,0.6,0.8,0.8,1.3c0.2,0.5,0.2,1,0.2,1.5c0,0-0.3,6.4-1.2,7c-1.8,1.1-4-1.3-4.5-0.7
			c-0.4,0.5,1.4,2.5,1.1,3.7c-0.2,0.8-2.5,1-4.3,0.8c-0.8-0.1-1.4-0.3-1.7-0.6c-0.9-0.9-1.2-2.9-2.8-4.2c-2.5-1.5-4.7-1.8-6.7-1.9
			c-0.1,0-0.3,0-0.6,0c-0.7,0-1.9,0.1-2.4,0.5c-1,0.8-1.1,2.8,1.6,5.9c2.6,3,4.7,5.7,6.4,8.1c4.8,6.6,6.4,10.7,7.3,12.9
			c0.7,1.8,0.4,2.2-0.1,3.3c-0.6,1.4-2.1,4.5-2.1,4.5H313c-0.3,0-0.7,0.2-0.9,0.5c0,0,0,0,0,0c-0.2,0.3-0.3,0.6-0.3,1
			c0,0.4,0.1,0.7,0.4,1c0.2,0.3,0.5,0.5,0.9,0.5l0.9,0.4l0.9,0.4c0.1,0,0.2,0.1,0.3,0.2c0.1,0.1,0.1,0.2,0.1,0.4v1
			c0.2,1.5,0.6,2.9,1.3,4.2h5.3L330,123h33.8L315.1,4H282z"/>
		<path class="st1" d="M475.4,44.8C475.4,16,455.5,4,424.2,4h-52v119h31.4V83h17.3l22.2,40h34.4l-25.1-45.2
			C463.4,73.2,475.4,63.7,475.4,44.8z M424.2,58.7h-20.7V30.9h20.7c13,0,19,3.6,19,13.9C443.2,55,437.1,58.7,424.2,58.7z"/>
		<path class="st1" d="M542.7,4h-52.9v119h31.4V90.6h21.5c32.1,0,50.4-16.2,50.4-43.3C593.1,20.2,574.8,4,542.7,4z M542.7,63.6
			h-21.5V30.9h21.5c12.1,0,18.2,5.5,18.2,16.3C560.9,58.2,554.8,63.6,542.7,63.6z"/>
		<polygon class="st1" points="678,76.3 648.7,4 607.2,4 607.2,123 638.6,123 638.6,54.6 666.4,123 689.6,123 717.4,54.6 717.4,123 
			748.8,123 748.8,4 707.3,4 		"/>
		<rect x="764.6" y="4" class="st1" width="31.4" height="119"/>
		<polygon class="st1" points="892.7,75.9 849.4,4 811.7,4 811.7,123 843.1,123 843.1,51.1 886.4,123 924.1,123 924.1,4 892.7,4 		
			"/>
		<path class="st1" d="M991.4,4h-51.5v119h51.5c38.5,0,60.2-23.4,60.2-59.5C1051.6,27.5,1030.6,4,991.4,4z M991.4,96h-20.2V30.9
			h20.2c19.9,0,28,14.6,28,32.5S1011.4,96,991.4,96z"/>
	</g>
</g>
</svg>
